<?xml version="1.0" encoding="UTF-8" standalone="no"?><svg xmlns="http://www.w3.org/2000/svg" xmlns:xlink="http://www.w3.org/1999/xlink" contentScriptType="application/ecmascript" contentStyleType="text/css" height="350px" preserveAspectRatio="none" style="width:350px;height:350px;" version="1.1" viewBox="0 0 350 350" width="350px" zoomAndPan="magnify"><defs/><g><!--MD5=[ed1d20ea533a2a0e7df5ba3c35e56ced]
cluster Controllers--><path d="M69,24 L143,24 A4.5,4.5 0 0 1 146,27 L153,44.4844 L289,44.4844 A3,3 0 0 1 292,47.4844 L292,113 A3,3 0 0 1 289,116 L69,116 A3,3 0 0 1 66,113 L66,27 A3,3 0 0 1 69,24 " fill="#FFFFFF" style="stroke: #000000; stroke-width: 1.5;"/><line style="stroke: #000000; stroke-width: 1.5;" x1="66" x2="153" y1="44.4844" y2="44.4844"/><text fill="#000000" font-family="Tahoma, sans-serif" font-size="12" font-weight="bold" lengthAdjust="spacingAndGlyphs" textLength="74" x="70" y="38.0059">Controllers</text><!--MD5=[6326b81c113285a9d7424a8f38b27174]
cluster Usecases--><path d="M25,140 L90,140 A4.5,4.5 0 0 1 93,143 L100,160.4844 L191,160.4844 A3,3 0 0 1 194,163.4844 L194,219 A3,3 0 0 1 191,222 L25,222 A3,3 0 0 1 22,219 L22,143 A3,3 0 0 1 25,140 " fill="#FFFFFF" style="stroke: #000000; stroke-width: 1.5;"/><line style="stroke: #000000; stroke-width: 1.5;" x1="22" x2="100" y1="160.4844" y2="160.4844"/><text fill="#000000" font-family="Tahoma, sans-serif" font-size="12" font-weight="bold" lengthAdjust="spacingAndGlyphs" textLength="65" x="26" y="154.0059">Usecases</text><!--MD5=[114f4823940f317c08f5bedd633c9afd]
cluster Entities--><path d="M35,255 L85,255 A4.5,4.5 0 0 1 88,258 L95,275.4844 L292,275.4844 A3,3 0 0 1 295,278.4844 L295,335 A3,3 0 0 1 292,338 L35,338 A3,3 0 0 1 32,335 L32,258 A3,3 0 0 1 35,255 " fill="#FFFFFF" style="stroke: #000000; stroke-width: 1.5;"/><line style="stroke: #000000; stroke-width: 1.5;" x1="32" x2="95" y1="275.4844" y2="275.4844"/><text fill="#000000" font-family="Tahoma, sans-serif" font-size="12" font-weight="bold" lengthAdjust="spacingAndGlyphs" textLength="50" x="36" y="269.0059">Entities</text><!--MD5=[e69828dec1dbb2627e683807b1b11ce9]
cluster Frameworks--><path d="M221,143.5 L300,143.5 A4.5,4.5 0 0 1 303,146.5 L310,163.9844 L335,163.9844 A3,3 0 0 1 338,166.9844 L338,215.5 A3,3 0 0 1 335,218.5 L221,218.5 A3,3 0 0 1 218,215.5 L218,146.5 A3,3 0 0 1 221,143.5 " fill="#FFFFFF" style="stroke: #000000; stroke-width: 1.5;"/><line style="stroke: #000000; stroke-width: 1.5;" x1="218" x2="310" y1="163.9844" y2="163.9844"/><text fill="#000000" font-family="Tahoma, sans-serif" font-size="12" font-weight="bold" lengthAdjust="spacingAndGlyphs" textLength="79" x="222" y="157.5059">Frameworks</text><ellipse cx="178.8126" cy="78.6625" fill="#F8F8F8" rx="96.3126" ry="21.6625" style="stroke: #383838; stroke-width: 0.5;"/><text fill="#000000" font-family="Tahoma, sans-serif" font-size="12" font-weight="bold" lengthAdjust="spacingAndGlyphs" textLength="172" x="92.8126" y="82.4047">AppConfigDemoController</text><ellipse cx="108.1876" cy="189.3375" fill="#F8F8F8" rx="69.6876" ry="16.3375" style="stroke: #383838; stroke-width: 0.5;"/><text fill="#000000" font-family="Tahoma, sans-serif" font-size="12" lengthAdjust="spacingAndGlyphs" textLength="112" x="52.1876" y="193.0797">demonstrateToggle</text><!--MD5=[c29bc2a571012638a14505f03c02155f]
entity _AppResponse--><rect fill="#F8F8F8" height="34.4844" rx="3" ry="3" style="stroke: #000000; stroke-width: 0.5;" width="98" x="48" y="288"/><text fill="#000000" font-family="Tahoma, sans-serif" font-size="12" lengthAdjust="spacingAndGlyphs" textLength="78" x="58" y="310.0059">AppResponse</text><!--MD5=[58baeb2beb42fbe892a4e1eb11d0f902]
entity _NewAppResponse--><rect fill="#F8F8F8" height="34.4844" rx="3" ry="3" style="stroke: #000000; stroke-width: 0.5;" width="122" x="157" y="288"/><text fill="#000000" font-family="Tahoma, sans-serif" font-size="12" lengthAdjust="spacingAndGlyphs" textLength="102" x="167" y="310.0059">NewAppResponse</text><ellipse cx="277.8051" cy="189.742" fill="#F8F8F8" rx="43.3051" ry="13.242" style="stroke: #383838; stroke-width: 0.5;"/><text fill="#000000" font-family="Tahoma, sans-serif" font-size="12" lengthAdjust="spacingAndGlyphs" textLength="57" x="249.3051" y="193.4842">getToggle</text><!--MD5=[e3d0b9abc4ec19de7e45ecd4798566ca]
link <b>AppConfigDemoController</b> to demonstrateToggle--><path d="M165.645,100.002 C152.799,119.725 133.51,149.337 120.839,168.79 " fill="none" id="&lt;b&gt;AppConfigDemoController&lt;/b&gt;-&gt;demonstrateToggle" style="stroke: #000000; stroke-width: 1.0;"/><polygon fill="#000000" points="118.083,173.02,126.3471,167.6623,120.8122,168.8305,119.6439,163.2956,118.083,173.02" style="stroke: #000000; stroke-width: 1.0;"/><!--MD5=[8561919c61fa2db1cb5b7ff5e0eee055]
link <b>AppConfigDemoController</b> to getToggle--><path d="M197.389,99.747 C216.52,120.81 246.077,153.353 263.585,172.629 " fill="none" id="&lt;b&gt;AppConfigDemoController&lt;/b&gt;-&gt;getToggle" style="stroke: #000000; stroke-width: 1.0;"/><polygon fill="#000000" points="267.341,176.764,264.2516,167.4122,263.9796,173.0626,258.3292,172.7906,267.341,176.764" style="stroke: #000000; stroke-width: 1.0;"/><!--MD5=[c84cd093bef006e12093103b6d145832]
link demonstrateToggle to _AppResponse--><path d="M106.47,206.282 C104.5358,226.244 101.1977,260.6877 99.0454,282.8951 " fill="none" id="demonstrateToggle-&gt;_AppResponse" style="stroke: #000000; stroke-width: 0.5;"/><polygon fill="#000000" points="98.552,287.9865,103.4017,279.4144,99.0344,283.0098,95.439,278.6426,98.552,287.9865" style="stroke: #000000; stroke-width: 0.5;"/><!--MD5=[486ac2b822b7924e29de73a39e719442]
link demonstrateToggle to _NewAppResponse--><path d="M122.835,205.807 C142.459,226.056 177.084,261.7823 198.718,284.1042 " fill="none" id="demonstrateToggle-&gt;_NewAppResponse" style="stroke: #000000; stroke-width: 0.5;"/><polygon fill="#000000" points="202.336,287.8381,198.9443,278.5917,198.856,284.2478,193.1999,284.1596,202.336,287.8381" style="stroke: #000000; stroke-width: 0.5;"/><script type="text/plantuml"><![CDATA[MD5=[7db722fb3b151f93ac7a4d9e51157c01]
@startuml

scale max 1920 width
top to bottom direction

skinparam nodesep 11
skinparam ranksep 23
skinparam monochrome true
skinparam shadowing false
skinparam defaultFontName Tahoma
skinparam defaultFontSize 12
skinparam roundCorner 6
skinparam dpi 150
skinparam arrowColor black
skinparam arrowThickness 0.5
skinparam packageTitleAlignment left

skinparam usecase {
  borderThickness 0.5
}

skinparam rectangle {
  borderThickness 0.5
}

skinparam component {
  borderThickness 1
}


package "Controllers" {
  (<b>AppConfigDemoController</b>)
}

package "Usecases" {
  (demonstrateToggle)
}

package "Entities" {
  rectangle "AppResponse" as _AppResponse
  rectangle "NewAppResponse" as _NewAppResponse
}

package "Frameworks" {
  (getToggle)
}

(<b>AppConfigDemoController</b>) --[thickness=1]> (demonstrateToggle)
(<b>AppConfigDemoController</b>) --[thickness=1]> (getToggle)
(demonstrateToggle) ---> _AppResponse
(demonstrateToggle) ---> _NewAppResponse

@enduml


' View and edit on https://arkit.pro
]]></script></g></svg>